<svg width="1392" height="224" viewBox="0 0 1392 224" fill="none" xmlns="http://www.w3.org/2000/svg">
<path d="M892.165 85.5667H891.665V86.0667V163.298C891.665 170.697 893.29 176.078 896.867 179.599C900.442 183.119 905.868 184.681 913.233 184.681C918.228 184.681 924.037 183.818 926.35 183.402V215.232C923.746 216.289 916.358 218.807 902.726 218.807C887.506 218.807 875.223 214.235 866.747 205.855C858.272 197.477 853.546 185.236 853.546 169.789V86.0667V85.5667H853.046H822.945V51.3866H830.937C839.885 51.3866 846.408 48.5316 850.688 43.7549C854.96 38.9875 856.94 32.3703 856.94 24.9486V0.5H891.665V50.8866V51.3866H892.165H926.026V85.5667H892.165Z" fill="white" stroke="white"/>
<path d="M1095.13 216.722H1059.39C1059.2 215.949 1058.85 214.141 1058.53 211.225C1058.15 207.748 1057.81 202.725 1057.81 196.068V194.3L1056.89 195.806C1049.19 208.319 1032.99 221.885 1006.32 221.885C971.835 221.885 950.675 198.183 950.675 172.149C950.675 157.418 956.066 146.023 964.936 137.793C973.818 129.552 986.218 124.457 1000.27 122.408L1000.27 122.407L1042.78 115.931C1042.78 115.93 1042.78 115.93 1042.78 115.93C1047.61 115.256 1050.8 113.695 1052.78 111.487C1054.76 109.275 1055.46 106.486 1055.46 103.496C1055.46 96.3733 1053.04 89.9063 1047.81 85.2254C1042.59 80.5495 1034.63 77.7088 1023.65 77.7088C1013.18 77.7088 1004.98 81.0747 999.184 86.5962C993.521 91.9916 990.187 99.4123 989.237 107.668L954.169 99.7061C957.411 71.4675 982.94 46.2797 1023.33 46.2797C1048.76 46.2797 1066.22 53.5075 1077.33 64.7878C1088.33 75.957 1093.16 91.164 1093.25 107.455H1093.2V107.955V190.566C1093.2 204.409 1094.64 213.916 1095.13 216.722ZM1011.71 146.747L1011.71 146.747L1011.7 146.748C1005.51 147.781 999.885 150.026 995.795 153.783C991.692 157.552 989.173 162.813 989.173 169.791C989.173 175.575 991.345 181.091 995.526 185.16C999.71 189.231 1005.88 191.825 1013.81 191.825C1024.94 191.825 1035.36 189.169 1043.01 182.359C1050.59 175.609 1055.36 164.849 1055.46 148.785H1055.5V148.285V140.763V140.183L1054.92 140.269L1011.71 146.747Z" fill="white" stroke="white"/>
<path d="M1180.46 85.5667H1179.96V86.0667V163.298C1179.96 170.697 1181.58 176.078 1185.16 179.599C1188.74 183.119 1194.16 184.681 1201.52 184.681C1206.53 184.681 1212.34 183.817 1214.65 183.401V215.232C1212.05 216.289 1204.65 218.807 1191.02 218.807C1175.8 218.807 1163.51 214.235 1155.04 205.855C1146.56 197.477 1141.84 185.236 1141.84 169.789V86.0667V85.5667H1141.34H1111.19V51.3866H1119.23C1128.18 51.3866 1134.71 48.5317 1138.98 43.7549C1143.25 38.9873 1145.23 32.3701 1145.23 24.9486V0.5H1179.96V50.8866V51.3866H1180.46H1214.32V85.5667H1180.46Z" fill="white" stroke="white"/>
<path d="M1269.96 144.329H1269.44L1269.46 144.85C1270.51 170.411 1290.44 188.708 1315.21 188.708C1327.21 188.708 1336.33 185.52 1343.15 180.233C1349.84 175.049 1354.26 167.876 1357.01 159.806L1389.39 170.117C1380.45 198.711 1354.51 221.885 1315.17 221.885C1270.51 221.885 1230.96 189.331 1230.96 133.229C1230.96 80.8991 1269.49 46.2797 1311.07 46.2797C1336.45 46.2797 1356.54 54.7009 1370.29 69.6205C1384.04 84.5454 1391.5 106.028 1391.5 132.239C1391.5 135.468 1391.32 138.433 1391.11 140.673C1391.01 141.793 1390.9 142.73 1390.8 143.425C1390.75 143.817 1390.7 144.119 1390.66 144.329H1269.96ZM1270.41 115.776L1270.37 116.315H1270.91H1352.22H1352.73L1352.72 115.798C1352.38 105.964 1348.94 96.6149 1342.11 89.7215C1335.28 82.8231 1325.1 78.4271 1311.39 78.4271C1286.25 78.4271 1271.79 97.7958 1270.41 115.776Z" fill="white" stroke="white"/>
<path d="M144.816 216.538H109.124C108.931 215.765 108.584 213.957 108.264 211.041C107.882 207.564 107.542 202.541 107.542 195.883V194.116L106.616 195.622C98.9211 208.134 82.7254 221.66 56.0901 221.66C21.6605 221.66 0.5 197.944 0.5 171.965C0.5 157.233 5.89117 145.839 14.7547 137.615C23.6293 129.382 36.0162 124.3 50.0359 122.278L50.0401 122.277L92.509 115.786C92.5097 115.786 92.5105 115.786 92.5113 115.786C97.3392 115.092 100.528 113.52 102.506 111.314C104.487 109.105 105.189 106.33 105.189 103.366C105.189 96.2631 102.766 89.8064 97.5465 85.1309C92.3324 80.4601 84.387 77.6193 73.4391 77.6193C62.9553 77.6193 54.7541 80.9851 48.9589 86.5014C43.2964 91.8914 39.9655 99.3016 39.021 107.538L3.99429 99.5626C7.23709 71.3777 32.7785 46.1901 73.1146 46.1901C98.4952 46.1901 115.931 53.4178 127.023 64.6913C138.005 75.8537 142.832 91.0472 142.929 107.311H142.889V107.811V190.436C142.889 204.223 144.314 213.725 144.816 216.538ZM61.4922 146.576L61.4849 146.577C55.2918 147.603 49.6627 149.844 45.5747 153.6C41.4731 157.368 38.9578 162.629 38.9578 169.607C38.9578 175.364 41.1261 180.869 45.304 184.935C49.4844 189.002 55.646 191.6 63.5814 191.6C74.6865 191.6 85.101 188.944 92.7433 182.139C100.396 175.325 105.189 164.421 105.189 148.1V140.579V139.998L104.615 140.085L61.4922 146.576Z" fill="white" stroke="white"/>
<path d="M206.437 133.763C206.437 150.608 211.836 163.792 220.397 172.767C228.956 181.742 240.648 186.477 253.169 186.477C278.951 186.477 291.005 168.648 294.98 155.906L328.683 168.206C320.755 193.808 296.159 221.66 253.169 221.66C204.86 221.66 168.033 184.021 168.033 133.763C168.033 82.8411 204.859 46.1901 252.128 46.1901C296.173 46.1901 320.429 73.7429 327.323 100.017L292.917 112.641C290.971 105.394 287.223 97.7663 280.881 91.8986C274.374 85.8777 265.167 81.739 252.466 81.739C240.271 81.739 228.755 86.3108 220.29 95.1173C211.822 103.925 206.437 116.937 206.437 133.763Z" fill="white" stroke="white"/>
<path d="M382.201 144.238H381.68L381.702 144.759C382.754 170.266 402.683 188.563 427.406 188.563C439.378 188.563 448.493 185.375 455.305 180.088C461.983 174.904 466.408 167.731 469.155 159.661L501.493 169.972C492.599 198.579 466.651 221.7 427.365 221.7C382.752 221.7 343.257 189.146 343.257 133.097C343.257 80.7545 381.785 46.1891 423.309 46.1891C448.669 46.1891 468.736 54.6002 482.471 69.5079C496.211 84.421 503.665 105.89 503.685 132.095C503.685 135.323 503.51 138.302 503.295 140.554C503.188 141.68 503.071 142.621 502.961 143.318C502.906 143.667 502.854 143.95 502.807 144.162C502.801 144.189 502.795 144.214 502.789 144.238H382.201ZM382.703 115.632L382.662 116.17H383.202H464.416H464.934L464.916 115.653C464.581 105.82 461.149 96.4706 454.334 89.5771C447.514 82.6783 437.349 78.2823 423.633 78.2823C398.541 78.2823 384.085 97.6651 382.703 115.632Z" fill="white" stroke="white"/>
<path d="M657.298 89.4456L657.309 89.4581L657.322 89.4699L792.061 216.777L744.598 216.724L744.566 216.702L721.684 195.083L721.282 194.703L720.945 195.141C706.866 213.421 685.1 223.5 659.504 223.5C638.774 223.5 621.194 216.909 608.619 204.522L608.619 204.522C597.45 193.53 591.095 178.359 591.095 162.828C591.095 149.277 594.357 138.576 600.254 129.185C606.158 119.784 614.719 111.671 625.358 103.323L625.747 103.017L625.446 102.625C619.333 94.6461 609.617 79.4146 609.282 63.2395L609.282 63.218L609.279 63.1966L609.242 62.8437C609.242 62.5516 609.241 62.2177 609.194 61.8557C609.242 61.5933 609.242 61.3492 609.242 61.1404L609.242 61.1222C609.242 60.3394 609.281 59.5937 609.335 58.8404L609.335 58.8404L609.335 58.8348C611.29 26.2619 638.669 8.97334 664.834 8.78421H665.44C690.695 8.78421 709.363 21.0681 718.046 43.449L718.065 43.5021L718.003 43.5569L691.027 65.5625L690.906 64.9543L690.905 64.9472C689.766 59.6473 687.645 53.8157 683.709 49.3017C679.756 44.7694 673.997 41.5956 665.67 41.5956H665.44C659.766 41.5956 654.222 43.6695 650.257 47.2538L650.256 47.2548C645.759 51.3447 643.398 57.0696 643.453 63.7283C643.495 70.0885 646.202 76.3476 651.908 83.4039L651.908 83.404L651.915 83.413C653.612 85.4129 655.457 87.4515 657.298 89.4456ZM648.962 126.336L648.643 126.034L648.303 126.311L646.568 127.726C639.466 132.96 634.37 138.203 631.05 143.917C627.725 149.641 626.199 155.811 626.199 162.868C626.199 174.913 633.39 185.929 644.489 191.022L644.502 191.028L644.515 191.033C648.592 192.629 652.981 193.439 657.57 193.439C678.126 193.439 689.434 181.161 695.34 170.744L695.533 170.404L695.249 170.135L648.962 126.336Z" fill="white" stroke="white"/>
</svg>
